<!-- مراحل رشد باغچه - مرحله 1: بذر -->
<svg width="60" height="60" viewBox="0 0 60 60" xmlns="http://www.w3.org/2000/svg">
  <defs>
    <!-- Gradient for soil -->
    <linearGradient id="soil" x1="0%" y1="0%" x2="0%" y2="100%">
      <stop offset="0%" style="stop-color:#8B4513;stop-opacity:1" />
      <stop offset="100%" style="stop-color:#654321;stop-opacity:1" />
    </linearGradient>
  </defs>

  <!-- Ground -->
  <ellipse cx="30" cy="50" rx="25" ry="8" fill="url(#soil)"/>

  <!-- Small seed -->
  <circle cx="30" cy="45" r="2" fill="#D2691E"/>

  <!-- Tiny sparkle -->
  <circle cx="35" cy="40" r="1" fill="#FFD700" opacity="0.7"/>
</svg>

<!-- مرحله 2: جوانه -->
<svg width="60" height="60" viewBox="0 0 60 60" xmlns="http://www.w3.org/2000/svg">
  <defs>
    <linearGradient id="soil2" x1="0%" y1="0%" x2="0%" y2="100%">
      <stop offset="0%" style="stop-color:#8B4513;stop-opacity:1" />
      <stop offset="100%" style="stop-color:#654321;stop-opacity:1" />
    </linearGradient>
    <linearGradient id="sprout" x1="0%" y1="0%" x2="0%" y2="100%">
      <stop offset="0%" style="stop-color:#90EE90;stop-opacity:1" />
      <stop offset="100%" style="stop-color:#32CD32;stop-opacity:1" />
    </linearGradient>
  </defs>

  <!-- Ground -->
  <ellipse cx="30" cy="50" rx="25" ry="8" fill="url(#soil2)"/>

  <!-- Small stem -->
  <rect x="29" y="35" width="2" height="15" fill="#228B22"/>

  <!-- First tiny leaves -->
  <ellipse cx="25" cy="38" rx="4" ry="2" fill="url(#sprout)" transform="rotate(-30 25 38)"/>
  <ellipse cx="35" cy="38" rx="4" ry="2" fill="url(#sprout)" transform="rotate(30 35 38)"/>
</svg>

<!-- مرحله 3: گیاه کوچک -->
<svg width="60" height="60" viewBox="0 0 60 60" xmlns="http://www.w3.org/2000/svg">
  <defs>
    <linearGradient id="soil3" x1="0%" y1="0%" x2="0%" y2="100%">
      <stop offset="0%" style="stop-color:#8B4513;stop-opacity:1" />
      <stop offset="100%" style="stop-color:#654321;stop-opacity:1" />
    </linearGradient>
    <linearGradient id="leaves" x1="0%" y1="0%" x2="0%" y2="100%">
      <stop offset="0%" style="stop-color:#98FB98;stop-opacity:1" />
      <stop offset="100%" style="stop-color:#32CD32;stop-opacity:1" />
    </linearGradient>
  </defs>

  <!-- Ground -->
  <ellipse cx="30" cy="50" rx="25" ry="8" fill="url(#soil3)"/>

  <!-- Stem -->
  <rect x="29" y="25" width="2" height="25" fill="#228B22"/>

  <!-- Leaves -->
  <ellipse cx="22" cy="32" rx="6" ry="3" fill="url(#leaves)" transform="rotate(-45 22 32)"/>
  <ellipse cx="38" cy="32" rx="6" ry="3" fill="url(#leaves)" transform="rotate(45 38 32)"/>
  <ellipse cx="20" cy="40" rx="5" ry="3" fill="url(#leaves)" transform="rotate(-30 20 40)"/>
  <ellipse cx="40" cy="40" rx="5" ry="3" fill="url(#leaves)" transform="rotate(30 40 40)"/>
</svg>

<!-- مرحله 4: گل -->
<svg width="60" height="60" viewBox="0 0 60 60" xmlns="http://www.w3.org/2000/svg">
  <defs>
    <linearGradient id="soil4" x1="0%" y1="0%" x2="0%" y2="100%">
      <stop offset="0%" style="stop-color:#8B4513;stop-opacity:1" />
      <stop offset="100%" style="stop-color:#654321;stop-opacity:1" />
    </linearGradient>
    <linearGradient id="leaves4" x1="0%" y1="0%" x2="0%" y2="100%">
      <stop offset="0%" style="stop-color:#98FB98;stop-opacity:1" />
      <stop offset="100%" style="stop-color:#32CD32;stop-opacity:1" />
    </linearGradient>
    <radialGradient id="flower" cx="50%" cy="50%" r="50%">
      <stop offset="0%" style="stop-color:#FFB6C1;stop-opacity:1" />
      <stop offset="100%" style="stop-color:#FF69B4;stop-opacity:1" />
    </radialGradient>
  </defs>

  <!-- Ground -->
  <ellipse cx="30" cy="50" rx="25" ry="8" fill="url(#soil4)"/>

  <!-- Stem -->
  <rect x="29" y="20" width="2" height="30" fill="#228B22"/>

  <!-- Leaves -->
  <ellipse cx="22" cy="35" rx="6" ry="3" fill="url(#leaves4)" transform="rotate(-45 22 35)"/>
  <ellipse cx="38" cy="35" rx="6" ry="3" fill="url(#leaves4)" transform="rotate(45 38 35)"/>
  <ellipse cx="20" cy="42" rx="5" ry="3" fill="url(#leaves4)" transform="rotate(-30 20 42)"/>
  <ellipse cx="40" cy="42" rx="5" ry="3" fill="url(#leaves4)" transform="rotate(30 40 42)"/>

  <!-- Flower petals -->
  <circle cx="30" cy="18" r="3" fill="url(#flower)"/>
  <ellipse cx="24" cy="15" rx="4" ry="2" fill="url(#flower)" transform="rotate(-30 24 15)"/>
  <ellipse cx="36" cy="15" rx="4" ry="2" fill="url(#flower)" transform="rotate(30 36 15)"/>
  <ellipse cx="27" cy="22" rx="4" ry="2" fill="url(#flower)" transform="rotate(-60 27 22)"/>
  <ellipse cx="33" cy="22" rx="4" ry="2" fill="url(#flower)" transform="rotate(60 33 22)"/>

  <!-- Flower center -->
  <circle cx="30" cy="18" r="2" fill="#FFD700"/>

  <!-- Sparkles -->
  <circle cx="35" cy="12" r="1" fill="#FFD700" opacity="0.8"/>
  <circle cx="25" cy="20" r="1" fill="#FFD700" opacity="0.6"/>
</svg>

<!-- مرحله 5: گل کامل -->
<svg width="60" height="60" viewBox="0 0 60 60" xmlns="http://www.w3.org/2000/svg">
  <defs>
    <linearGradient id="soil5" x1="0%" y1="0%" x2="0%" y2="100%">
      <stop offset="0%" style="stop-color:#8B4513;stop-opacity:1" />
      <stop offset="100%" style="stop-color:#654321;stop-opacity:1" />
    </linearGradient>
    <linearGradient id="leaves5" x1="0%" y1="0%" x2="0%" y2="100%">
      <stop offset="0%" style="stop-color:#ADFF2F;stop-opacity:1" />
      <stop offset="100%" style="stop-color:#32CD32;stop-opacity:1" />
    </linearGradient>
    <radialGradient id="bigflower" cx="50%" cy="50%" r="50%">
      <stop offset="0%" style="stop-color:#FF1493;stop-opacity:1" />
      <stop offset="100%" style="stop-color:#C71585;stop-opacity:1" />
    </radialGradient>
  </defs>

  <!-- Ground -->
  <ellipse cx="30" cy="50" rx="28" ry="8" fill="url(#soil5)"/>

  <!-- Stem -->
  <rect x="29" y="15" width="2" height="35" fill="#228B22"/>

  <!-- Leaves -->
  <ellipse cx="20" cy="30" rx="8" ry="4" fill="url(#leaves5)" transform="rotate(-45 20 30)"/>
  <ellipse cx="40" cy="30" rx="8" ry="4" fill="url(#leaves5)" transform="rotate(45 40 30)"/>
  <ellipse cx="18" cy="40" rx="6" ry="3" fill="url(#leaves5)" transform="rotate(-30 18 40)"/>
  <ellipse cx="42" cy="40" rx="6" ry="3" fill="url(#leaves5)" transform="rotate(30 42 40)"/>

  <!-- Big beautiful flower -->
  <circle cx="30" cy="15" r="6" fill="url(#bigflower)"/>
  <ellipse cx="22" cy="10" rx="5" ry="3" fill="url(#bigflower)" transform="rotate(-30 22 10)"/>
  <ellipse cx="38" cy="10" rx="5" ry="3" fill="url(#bigflower)" transform="rotate(30 38 10)"/>
  <ellipse cx="22" cy="20" rx="5" ry="3" fill="url(#bigflower)" transform="rotate(-150 22 20)"/>
  <ellipse cx="38" cy="20" rx="5" ry="3" fill="url(#bigflower)" transform="rotate(150 38 20)"/>

  <!-- Flower center -->
  <circle cx="30" cy="15" r="3" fill="#FFD700"/>

  <!-- Beautiful sparkles -->
  <circle cx="38" cy="8" r="1.5" fill="#FFD700" opacity="0.9"/>
  <circle cx="22" cy="8" r="1" fill="#FFD700" opacity="0.7"/>
  <circle cx="35" cy="22" r="1" fill="#FFD700" opacity="0.8"/>
  <circle cx="25" cy="22" r="1.5" fill="#FFD700" opacity="0.6"/>
</svg>